<svg width="44" height="52" viewBox="0 0 44 52" fill="none" xmlns="http://www.w3.org/2000/svg">
<path fill-rule="evenodd" clip-rule="evenodd" d="M43.4647 9.39395L34.7011 0.250398C34.5474 0.0900008 34.3386 0 34.1212 0H7.83093C7.37828 0 7.01103 0.383172 7.01103 0.855454V14.5708C7.01103 15.0431 7.37828 15.4262 7.83093 15.4262C8.28359 15.4262 8.65084 15.0431 8.65084 14.5708V1.71091H33.3013V9.99901C33.3013 10.4713 33.6686 10.8545 34.1212 10.8545H42.0649V50.2891H8.65084V39.0354C9.23843 39.1428 9.84311 39.1989 10.4597 39.1989C16.2273 39.1989 20.9195 34.3032 20.9195 28.2857C20.9195 22.2681 16.2273 17.3724 10.4597 17.3724C4.69224 17.3724 0 22.2681 0 28.2857C0 30.9875 0.946305 33.4625 2.51053 35.3703C2.67731 35.5928 3.14269 36.1462 3.66992 36.58C4.64527 37.4506 5.77562 38.1372 7.01103 38.5885V51.1445C7.01103 51.6168 7.37828 52 7.83093 52H42.8848C43.3375 52 43.7047 51.6168 43.7047 51.1445V9.99901C43.7047 9.77222 43.6185 9.55435 43.4647 9.39395ZM19.2797 28.2861C19.2797 23.2118 15.3232 19.0837 10.4597 19.0837C5.59669 19.0837 1.63981 23.2118 1.63981 28.2861C1.63981 33.36 5.59669 37.488 10.4597 37.488C15.3232 37.488 19.2797 33.36 19.2797 28.2861ZM40.9051 9.14355L34.9411 2.92102V9.14355H40.9051Z" fill="#666666"/>
<path d="M17.4708 7.19699C18.2446 7.19699 18.959 7.5414 19.4826 8.16606C19.7806 8.52161 20.2986 8.5577 20.6394 8.24671C20.9806 7.93616 21.0152 7.39571 20.7171 7.03971C19.8895 6.05238 18.7066 5.48608 17.4708 5.48608C15.0858 5.48608 13.1454 7.51066 13.1454 9.99861V11.8276C13.1454 14.316 15.0858 16.3401 17.4708 16.3401C18.7066 16.3401 19.8895 15.7738 20.7171 14.7865C21.0152 14.4309 20.9802 13.8905 20.6394 13.5795C20.2986 13.2685 19.7806 13.3046 19.4826 13.6606C18.959 14.2852 18.2446 14.6292 17.4708 14.6292C15.9899 14.6292 14.7852 13.3723 14.7852 11.8276V9.99861C14.7852 8.45389 15.9899 7.19699 17.4708 7.19699Z" fill="#666666"/>
<path d="M29.9752 5.52218C29.5417 5.38673 29.0844 5.64337 28.9541 6.0956L26.576 14.3659C26.5307 14.5236 26.3945 14.6296 26.2314 14.6296C26.0738 14.6296 25.9376 14.5236 25.8919 14.3659L23.5142 6.0956C23.3839 5.64337 22.927 5.38629 22.4931 5.52218C22.0593 5.65807 21.8133 6.13481 21.9436 6.58749L24.3213 14.8578C24.5766 15.7449 25.344 16.3405 26.2369 16.3405C27.1243 16.3405 27.8917 15.7449 28.1471 14.8578L30.5248 6.58749C30.655 6.13481 30.409 5.65807 29.9752 5.52218Z" fill="#666666"/>
<path d="M32.3686 20.1157H23.6051C23.152 20.1157 22.7852 20.4989 22.7852 20.9712C22.7852 21.4435 23.152 21.8266 23.6051 21.8266H32.3686C32.8213 21.8266 33.1885 21.4435 33.1885 20.9712C33.1885 20.4989 32.8213 20.1157 32.3686 20.1157Z" fill="#666666"/>
<path d="M38.503 24.6875H24.4814C24.0287 24.6875 23.6615 25.0707 23.6615 25.5429C23.6615 26.0152 24.0287 26.3984 24.4814 26.3984H38.503C38.9557 26.3984 39.323 26.0152 39.323 25.5429C39.323 25.0707 38.9557 24.6875 38.503 24.6875Z" fill="#666666"/>
<path d="M39.323 30.1147C39.323 29.6424 38.9557 29.2593 38.503 29.2593H24.4814C24.0287 29.2593 23.6615 29.6424 23.6615 30.1147C23.6615 30.587 24.0287 30.9702 24.4814 30.9702H38.503C38.9557 30.9702 39.323 30.587 39.323 30.1147Z" fill="#666666"/>
<path d="M23.6051 33.8311C23.1524 33.8311 22.7852 34.2138 22.7852 34.6865C22.7852 35.1588 23.1524 35.542 23.6051 35.542H32.3686C32.8213 35.542 33.1885 35.1588 33.1885 34.6865C33.1885 34.2138 32.8213 33.8311 32.3686 33.8311H23.6051Z" fill="#666666"/>
<path d="M5.06529 32.1843C5.19724 32.1843 5.3309 32.1508 5.45474 32.0809C5.85317 31.8563 6.00135 31.3373 5.7857 30.9216C4.67626 28.7816 5.05291 26.0856 6.70168 24.3649C8.35088 22.6446 10.9349 22.2516 12.9859 23.4092C13.3843 23.6342 13.8818 23.4796 14.097 23.0639C14.3127 22.6486 14.1645 22.1296 13.7661 21.9046C11.0822 20.3892 7.70008 20.9038 5.54229 23.1552C3.38406 25.4066 2.89126 28.9353 4.3436 31.736C4.49178 32.0221 4.77405 32.1843 5.06529 32.1843Z" fill="#666666"/>
<path d="M7.9338 33.162C7.53538 32.9374 7.03788 33.092 6.82223 33.5077C6.60658 33.923 6.75519 34.442 7.15318 34.667C8.18361 35.2489 9.31696 35.5314 10.4443 35.5314C12.2537 35.5314 14.0476 34.8038 15.377 33.4164C17.5352 31.1646 18.028 27.6363 16.5761 24.8356C16.3604 24.4203 15.863 24.2657 15.4645 24.4903C15.0661 24.7153 14.9179 25.2343 15.1336 25.65C16.243 27.79 15.8664 30.486 14.2176 32.2067C12.5688 33.927 9.98441 34.32 7.9338 33.162Z" fill="#666666"/>
</svg>
