<svg width="56" height="56" viewBox="0 0 56 56" fill="none" xmlns="http://www.w3.org/2000/svg">
<g clip-path="url(#clip0)">
<path d="M53.4263 18.4121H49.9193C49.4663 18.4121 49.099 18.7794 49.099 19.2324C49.099 19.6855 49.4663 20.0527 49.9193 20.0527H53.4263C53.9409 20.0527 54.3595 20.4714 54.3595 20.9859V45.5354C54.3595 46.05 53.9408 46.4686 53.4263 46.4686H14.8486C14.334 46.4686 13.9153 46.0499 13.9153 45.5354V36.7678C13.9153 36.3148 13.548 35.9475 13.095 35.9475C12.6419 35.9475 12.2747 36.3148 12.2747 36.7678V45.5354C12.2747 46.9547 13.4293 48.1092 14.8486 48.1092H15.2748L14.1149 50.4291C13.9877 50.6834 14.0013 50.9854 14.1508 51.2272C14.3003 51.469 14.5643 51.6162 14.8486 51.6162H17.4788C17.6964 51.6162 17.9051 51.5298 18.0589 51.3759L21.3257 48.1091H46.9491L50.2159 51.3759C50.3697 51.5298 50.5784 51.6162 50.796 51.6162H53.4262C53.7105 51.6162 53.9745 51.469 54.124 51.2272C54.2735 50.9854 54.2871 50.6834 54.1599 50.4291L53 48.1092H53.4262C54.8455 48.1092 56 46.9546 56 45.5354V20.9858C56.0001 19.5668 54.8455 18.4121 53.4263 18.4121ZM17.1391 49.9756H16.1759L17.109 48.1092H19.0055L17.1391 49.9756ZM51.1358 49.9756L49.2694 48.1092H51.1657L52.099 49.9756H51.1358Z" fill="#666666"/>
<path d="M51.6728 42.9614H16.6022C16.149 42.9614 15.7819 43.3286 15.7819 43.7817C15.7819 44.2348 16.1491 44.6021 16.6022 44.6021H51.6728C52.1258 44.6021 52.4931 44.2348 52.4931 43.7817C52.4931 43.3287 52.1258 42.9614 51.6728 42.9614Z" fill="#666666"/>
<path d="M43.7819 11.3977H3.45057C1.54788 11.3977 0 12.9458 0 14.8485V30.6302C0 32.5329 1.54788 34.0808 3.45057 34.0808H43.7818C45.6846 34.0809 47.2325 32.5329 47.2325 30.6302V14.8485C47.2325 12.9458 45.6846 11.3977 43.7819 11.3977ZM45.5917 30.6301C45.5917 31.6282 44.7799 32.4401 43.7818 32.4401H3.45057C2.45252 32.4402 1.64063 31.6282 1.64063 30.6301V14.8484C1.64063 13.8503 2.45252 13.0383 3.45057 13.0383H43.7818C44.7799 13.0383 45.5917 13.8503 45.5917 14.8484V30.6301Z" fill="#666666"/>
<path d="M14.8485 26.303H10.4082V18.3557C10.4082 17.9027 10.0409 17.5354 9.58789 17.5354C9.13486 17.5354 8.76758 17.9027 8.76758 18.3557V27.1233C8.76758 27.5764 9.13486 27.9437 9.58789 27.9437H14.8485C15.3015 27.9437 15.6688 27.5764 15.6688 27.1233C15.6688 26.6702 15.3015 26.303 14.8485 26.303Z" fill="#666666"/>
<path d="M18.2095 17.5354C17.7564 17.5354 17.3892 17.9027 17.3892 18.3557V27.1233C17.3892 27.5764 17.7564 27.9437 18.2095 27.9437C18.6625 27.9437 19.0298 27.5764 19.0298 27.1233V18.3557C19.0298 17.9026 18.6625 17.5354 18.2095 17.5354Z" fill="#666666"/>
<path d="M29.5787 17.6074C29.1655 17.4214 28.6799 17.6057 28.494 18.0189L25.2967 25.1241L22.0993 18.0189C21.9135 17.6058 21.4279 17.4216 21.0146 17.6074C20.6015 17.7934 20.4173 18.279 20.6032 18.6921L24.5487 27.4597C24.6811 27.7541 24.9739 27.9434 25.2967 27.9434C25.6194 27.9434 25.9122 27.7541 26.0447 27.4597L29.9901 18.6921C30.176 18.279 29.9918 17.7934 29.5787 17.6074Z" fill="#666666"/>
<path d="M38.5212 26.303H33.2041V23.5598H37.6444C38.0974 23.5598 38.4647 23.1925 38.4647 22.7395C38.4647 22.2864 38.0974 21.9192 37.6444 21.9192H33.2041V19.1759H38.5212V19.176C38.9742 19.176 39.3415 18.8087 39.3415 18.3557C39.3415 17.9027 38.9742 17.5354 38.5212 17.5354H32.3838C31.9308 17.5354 31.5635 17.9027 31.5635 18.3557V27.1233C31.5635 27.5764 31.9308 27.9437 32.3838 27.9437H38.5212C38.9742 27.9437 39.3415 27.5764 39.3415 27.1233C39.3415 26.6702 38.9742 26.303 38.5212 26.303Z" fill="#666666"/>
<path d="M43.782 7.89087C43.329 7.89087 42.9617 8.25815 42.9617 8.71118C42.9617 9.16421 43.3288 9.5315 43.782 9.5315C46.7138 9.5315 49.099 11.9167 49.099 14.8485C49.099 15.3016 49.4663 15.6689 49.9194 15.6689C50.3724 15.6689 50.7397 15.3016 50.7397 14.8485C50.7397 11.0119 47.6184 7.89087 43.782 7.89087Z" fill="#666666"/>
<path d="M43.782 4.38379C43.329 4.38379 42.9617 4.75107 42.9617 5.2041C42.9617 5.65713 43.3288 6.02442 43.782 6.02442C48.6475 6.02442 52.606 9.98292 52.606 14.8486C52.606 15.3016 52.9733 15.6689 53.4264 15.6689C53.8794 15.6689 54.2467 15.3016 54.2467 14.8486C54.2467 9.07828 49.5523 4.38379 43.782 4.38379Z" fill="#666666"/>
</g>
<defs>
<clipPath id="clip0">
<rect width="56" height="56" fill="white"/>
</clipPath>
</defs>
</svg>
