<?xml version="1.0" standalone="no"?>
<!DOCTYPE svg PUBLIC "-//W3C//DTD SVG 20010904//EN"
 "http://www.w3.org/TR/2001/REC-SVG-20010904/DTD/svg10.dtd">
<svg version="1.0" xmlns="http://www.w3.org/2000/svg"
 width="228.000000pt" height="228.000000pt" viewBox="0 0 228.000000 228.000000"
 preserveAspectRatio="xMidYMid meet">
<metadata>
Created by potrace 1.11, written by Peter Selinger 2001-2013
</metadata>
<g transform="translate(0.000000,228.000000) scale(0.100000,-0.100000)"
fill="#000000" stroke="none">
<path d="M249 2196 c-73 -26 -127 -77 -159 -148 -20 -46 -20 -59 -20 -915 1
-849 1 -869 21 -913 25 -55 71 -105 124 -133 l40 -22 890 0 c849 0 892 1 925
19 49 26 98 74 123 121 l22 40 2 877 c3 866 3 877 -18 925 -26 63 -72 110
-134 139 l-50 24 -865 -1 c-683 0 -873 -2 -901 -13z"/>
</g>
</svg>
