<?xml version="1.0" standalone="no"?>
<!DOCTYPE svg PUBLIC "-//W3C//DTD SVG 20010904//EN"
 "http://www.w3.org/TR/2001/REC-SVG-20010904/DTD/svg10.dtd">
<svg version="1.0" xmlns="http://www.w3.org/2000/svg"
 width="273.000000pt" height="273.000000pt" viewBox="0 0 273.000000 273.000000"
 preserveAspectRatio="xMidYMid meet">
<metadata>
Created by potrace 1.11, written by Peter Selinger 2001-2013
</metadata>
<g transform="translate(0.000000,273.000000) scale(0.100000,-0.100000)"
fill="#000000" stroke="none">
<path d="M550 2431 c-69 -21 -130 -73 -166 -141 -18 -33 -19 -78 -21 -915 -3
-866 -2 -881 18 -925 25 -55 71 -105 124 -133 l40 -22 880 -2 c837 -2 882 -2
921 16 55 25 111 76 137 125 l22 41 0 890 0 890 -27 46 c-32 54 -77 95 -133
120 -38 17 -91 18 -905 18 -476 0 -876 -4 -890 -8z"/>
</g>
</svg>
